Man of Steel 2013 English CAM-Rip Full Video-0HKAY


IMDB: http://www.imdb.com/title/tt0770828/


Format : AVI
Format/Info : Audio Video Interleave
File size : 624 MiB
Duration : 2h 12mn
Overall bit rate : 658 Kbps
Writing application : Lavf52.84.0

Video
ID : 0
Format : MPEG-4 Visual
Codec ID : FMP4
Duration : 2h 12mn
Bit rate : 516 Kbps
Width : 352 pixels
Height : 240 pixels
Display aspect ratio : 3:2
Frame rate : 29.970 fps
Standard : NTSC
Color space : YUV
Chroma subsampling : 4:2:0
Compression mode : Lossy
Bits/(Pixel*Frame) : 0.204
Stream size : 490 MiB (78%)

Audio
ID : 1
Format : MPEG Audio
Format version : Version 1
Format profile : Layer 3
Mode : Joint stereo
Mode extension : MS Stereo
Codec ID : 55
Codec ID/Hint : MP3
Duration : 2h 12mn
Bit rate mode : Constant
Bit rate : 128 Kbps
Channel(s) : 2 channels
Sampling rate : 48.0 KHz
Compression mode : Lossy
Stream size : 121 MiB (19%)
Alignment : Aligned on interleaves
Interleave, duration : 24 ms (0.72 video frame)
Writing library : LAME3.98.4UUáXÁ / 


Notes: First Cam-rip of Superman on net so what you expect a good quality! 

Will come soon with a better one, for now enjoy superman who is in your house :)


Poster:

 
http://i.imgur.com/LrpLcBC.jpg


Screenshots:

 
http://i.imgur.com/LLr2fh8.jpg


SEED AND ENJOY!